<mxfile host="app.diagrams.net" agent="Mozilla/5.0 (Windows NT 10.0; Win64; x64) AppleWebKit/537.36 (KHTML, like Gecko) Chrome/137.0.0.0 Safari/537.36 Edg/137.0.0.0" version="27.1.4">
  <diagram name="第 1 页" id="22nXB6A6ubtkRBf9mf9Q">
    <mxGraphModel dx="571" dy="773" grid="1" gridSize="10" guides="1" tooltips="1" connect="1" arrows="1" fold="1" page="1" pageScale="1" pageWidth="827" pageHeight="1169" math="0" shadow="0">
      <root>
        <mxCell id="0" />
        <mxCell id="1" parent="0" />
        <mxCell id="6lCiINFOkbsmRXvfDdeZ-8" value="" style="edgeStyle=none;curved=1;rounded=0;orthogonalLoop=1;jettySize=auto;html=1;fontSize=12;startSize=8;endSize=8;" edge="1" parent="1" source="6lCiINFOkbsmRXvfDdeZ-6" target="6lCiINFOkbsmRXvfDdeZ-7">
          <mxGeometry relative="1" as="geometry" />
        </mxCell>
        <mxCell id="6lCiINFOkbsmRXvfDdeZ-6" value="仓库" style="ellipse;whiteSpace=wrap;html=1;" vertex="1" parent="1">
          <mxGeometry x="20" y="280" width="120" height="80" as="geometry" />
        </mxCell>
        <mxCell id="6lCiINFOkbsmRXvfDdeZ-7" value="" style="shape=waypoint;sketch=0;size=6;pointerEvents=1;points=[];fillColor=default;resizable=0;rotatable=0;perimeter=centerPerimeter;snapToPoint=1;" vertex="1" parent="1">
          <mxGeometry x="210" y="310" width="20" height="20" as="geometry" />
        </mxCell>
        <mxCell id="6lCiINFOkbsmRXvfDdeZ-11" value="" style="edgeStyle=none;curved=1;rounded=0;orthogonalLoop=1;jettySize=auto;html=1;fontSize=12;startSize=8;endSize=8;" edge="1" parent="1" source="6lCiINFOkbsmRXvfDdeZ-9" target="6lCiINFOkbsmRXvfDdeZ-10">
          <mxGeometry relative="1" as="geometry" />
        </mxCell>
        <mxCell id="6lCiINFOkbsmRXvfDdeZ-9" value="缺货通知单" style="shape=card;whiteSpace=wrap;html=1;" vertex="1" parent="1">
          <mxGeometry x="220" y="270" width="80" height="100" as="geometry" />
        </mxCell>
        <mxCell id="6lCiINFOkbsmRXvfDdeZ-10" value="" style="whiteSpace=wrap;html=1;" vertex="1" parent="1">
          <mxGeometry x="620" y="290" width="120" height="60" as="geometry" />
        </mxCell>
      </root>
    </mxGraphModel>
  </diagram>
</mxfile>
